<svg width="1546" height="467" viewBox="0 0 1546 467" fill="none" xmlns="http://www.w3.org/2000/svg">
<path d="M69.9848 83.2921C79.2738 82.3561 98.7829 82.9541 109.117 82.9491L186.383 82.9431L299.272 82.9231C319.983 82.9271 356.941 81.0911 375.733 85.8561C411.804 95.0011 437.322 135.173 428.372 172.5C424.258 189.698 413.502 204.568 398.456 213.857C371.337 230.402 332.952 227.332 315.925 198.287C309.656 187.593 307.245 175.549 310.355 163.378C313.495 151.283 321.256 140.905 331.969 134.476C369.48 112.375 407.837 160.845 370.358 180.768C369.756 180.661 365.267 179.796 365.481 179.781C363.877 179.891 358.942 176.748 359.12 175.707C360.211 169.355 362.548 160.537 359.035 154.594C358.214 153.205 356.509 151.751 354.574 151.479C350.952 150.969 346.57 153.315 343.664 155.14C338.053 158.663 334.858 163.19 333.554 169.613C332.269 175.937 334.036 182.098 337.619 187.359C341.983 193.767 349.602 198.062 357.151 199.429C368.057 201.403 380.541 198.38 389.607 192.023C398.45 185.738 404.415 176.179 406.174 165.473C411.279 135.407 389.136 114.377 360.987 109.764L168.663 109.657C146.735 109.656 71.1599 107.308 55.6519 112.345C43.9989 116.129 33.8848 125.776 28.5108 136.643C23.3448 147.088 21.9309 159.526 25.7859 170.643C29.5819 181.591 37.9098 191.392 48.4068 196.345C57.7108 200.735 69.1839 201.712 78.8609 198.019C86.5899 195.069 93.5788 189.31 96.8428 181.574C99.1548 176.095 99.3549 169.808 97.0359 164.3C95.1189 159.749 91.4059 155.33 86.7209 153.508C83.1519 152.119 78.3858 151.965 74.8728 153.624C65.8828 157.871 74.8868 168.162 72.4458 175.312C61.9028 189.908 35.0588 163.176 52.4628 142.049C77.0118 112.249 117.541 133.999 121.76 167.248C123.375 179.935 119.803 192.737 111.851 202.754C103.494 213.391 88.4388 221.974 75.1178 223.52C57.2208 225.658 39.2078 220.597 25.0428 209.449C-25.1672 169.513 5.40485 90.2201 69.9848 83.2921Z" fill="#FEFEFE"/>
<path d="M720.862 304.189C734.623 303.234 742.886 304.616 754.606 312.615C757.708 309.026 759.085 307.642 762.738 304.622L784.665 304.76C784.926 310.539 784.78 317.229 784.787 323.082L765.602 323.614C768.911 329.88 771.13 336.062 771.386 343.229C771.74 353.102 768.325 362.974 761.433 370.128C753.418 378.446 738.027 384.43 726.307 383.107C720.657 382.47 714.474 380.082 708.835 380.323C706.73 380.413 705.03 381.638 703.685 383.179C701.988 385.125 700.723 387.95 701.01 390.57C702.621 405.256 749.903 391.291 769.11 406.608C776.63 412.605 778.466 419.714 779.439 428.781C775.667 465.415 738.803 469.16 709.447 464.861C680.658 460.645 661.415 431.894 691.287 412.405C688.682 410.439 686.469 408.814 684.649 406.072C681.493 401.212 680.46 395.274 681.791 389.634C683.801 380.876 688.47 376.903 695.534 372.597C670.259 346.111 684.133 309.574 720.862 304.189ZM755.519 438.011C766.024 416.752 738.899 415.953 725.329 416.513C718.486 416.796 712.303 416.438 706.035 416.947C685.515 433.173 701.18 446.584 721.244 447.746C730.077 448.258 738.334 447.753 746.807 445.071C749.822 443.418 754.001 441.084 755.519 438.011ZM749.733 339.533C747.195 327.07 735.01 319.046 722.56 321.639C710.186 324.216 702.224 336.312 704.746 348.698C707.269 361.085 719.328 369.103 731.723 366.634C744.195 364.15 752.272 351.996 749.733 339.533Z" fill="#FEFEFE"/>
<path d="M37.5559 30.0611C59.3739 29.5071 83.1369 30.0071 105.201 30.0071H237.552L335.525 29.9571C353.718 29.9431 372.126 29.7111 390.285 30.1941C399.824 30.4481 398.909 48.2491 397.681 54.5281C396.818 58.9421 396.648 59.0781 393.147 62.0941L156.663 62.0431L82.0689 62.0271C68.3999 62.0401 54.3289 62.2611 40.6719 61.7411C38.3299 61.6521 36.1819 61.3961 34.6709 59.4191C30.6469 54.1541 32.0029 44.7561 32.6129 38.6491C33.1109 33.6641 33.6969 33.0831 37.5559 30.0611Z" fill="#FEFEFE"/>
<path d="M30.2098 436.1C98.5908 434.933 170.317 436.031 238.966 436.042L337.537 435.999C355.716 435.972 373.981 435.873 392.16 436.037C394.172 436.09 396.308 436.089 397.8 437.733C403.01 443.473 401.315 452.98 400.766 459.959C400.453 463.926 399.307 464.377 396.771 466.667C371.409 467.191 344.337 466.732 318.872 466.74L166.595 466.774L78.3158 466.769C63.1188 466.762 47.8138 466.936 32.6268 466.481C22.0728 466.165 25.2438 448.41 25.9198 441.801C26.2118 438.94 28.0758 437.657 30.2098 436.1Z" fill="#FEFEFE"/>
<path d="M935.042 189.971L916.002 190.022C915.392 185.201 915.232 179.669 914.972 174.768C900.422 193.331 881.522 197.144 860.362 188.13C827.889 170.133 825.537 116.523 852.022 93.1721C860.742 85.5082 872.162 81.6402 883.742 82.425C896.502 83.243 905.432 88.7623 913.652 98.1223L913.742 39.0881L935.152 39.0344L935.042 189.971ZM912.251 121.923C907.251 105.683 893.692 100.534 877.632 101.994C874.772 103.063 871.212 104.433 868.782 106.246C850.562 119.861 851.162 162.382 873.782 171.531C879.742 173.938 886.122 173.895 892.392 172.644C914.192 165.323 918.431 141.989 912.251 121.923Z" fill="#FEFEFE"/>
<path d="M667.957 413.973C660.397 414.204 652.292 414.095 644.685 414.131L629.276 372.086L593.223 372.076L561.877 372.132L546.006 414.087C538.554 414.171 530.871 413.928 523.402 413.785C528.438 397.874 537.354 376.25 543.417 360.266L582.333 257.628L596.971 257.637L609.932 257.594L667.957 413.973ZM595.799 281.201C587.184 304.66 578.412 328.063 569.485 351.406L595.969 351.422L621.948 351.435C618.462 341.785 599.437 286.024 595.799 281.201Z" fill="#FEFEFE"/>
<path d="M840.216 304.137C909.992 297.751 922.972 403.641 852.642 416.079C837.952 416.897 825.675 415.677 813.424 406.572C782.041 383.248 786.538 322.021 824.9 307.859C830.472 305.801 834.309 304.979 840.216 304.137ZM845.003 323.108C836.616 323.976 827.61 326.511 822.776 333.805C806.705 358.058 813.726 397.171 848.119 397.421C851.532 396.781 856.252 395.978 859.162 394.276C887.922 377.43 882.722 324.495 845.003 323.108Z" fill="#FEFEFE"/>
<path d="M1034.18 304.159C1065.91 301.16 1085.05 316.86 1083.39 349.839C1083.12 355.163 1083.37 362.276 1083.35 367.76C1083.24 383.131 1083.28 398.502 1083.45 413.872L1064.41 414.085L1062.74 399.164C1045.12 421.17 1007.57 424.843 993.753 396.75C980.423 350.739 1032.34 350.281 1062.18 348.603C1062.26 343.406 1062.68 338.335 1060.4 333.594C1058.05 328.58 1053.77 324.738 1048.53 322.952C1033.66 317.782 1020.6 325.189 1015.95 339.83C1009.23 338.843 1002.35 337.569 995.642 336.407C1001.88 314.538 1012.56 307.234 1034.18 304.159ZM1061.71 365.4C1060.23 364.049 1060.97 364.395 1058.5 364.474C1047.58 365.331 1038.17 365.759 1027.48 368.321C1012.44 371.927 1007.15 388.268 1021.3 396.826C1030.47 399.62 1039.35 399.962 1048.09 395.222C1054.62 391.692 1059.43 385.66 1061.43 378.51C1062.64 374.235 1062.73 369.721 1061.71 365.4Z" fill="#FEFEFE"/>
<path d="M570.78 39.1031C599.896 37.6071 620.314 43.9011 628.337 74.9151L608.223 79.5391C602.639 63.6701 594.768 58.7871 577.94 58.5271C565.366 58.3331 551.8 66.7491 553.046 80.5571C554.834 98.2501 582.851 102.829 598.209 107.805C631.108 118.466 642.883 150.105 620.532 177.702C611.255 189.158 592.651 192.449 577.725 192.65C549.657 192.288 530.519 179.206 525.559 150.872C532.102 149.084 539.243 147.702 545.918 146.291C548.303 155.013 551.315 162.06 558.939 167.998C569.513 176.235 599.907 175.744 606.059 161.962C623.102 123.779 569.994 127.111 549.355 112.944C530.087 99.7181 525.266 78.7261 537.466 58.2841C544.94 46.0301 557.34 41.9661 570.78 39.1031Z" fill="#FEFEFE"/>
<path d="M1501.6 82.8667C1533.11 82.3957 1546.22 97.707 1545.74 128.484C1545.42 148.716 1545.63 169.677 1545.59 189.954L1527.77 190.043C1527.6 185.487 1526.84 179.733 1526.34 175.094C1507.97 196.258 1472.8 202.156 1458.05 174.173C1444.57 128.006 1494.79 128.618 1524.85 125.499C1524.91 120.746 1525.29 116.263 1523.31 111.899C1521.02 106.869 1516.78 102.993 1511.57 101.165C1496.57 95.7946 1483.9 103.504 1479.15 118.084C1472.6 116.922 1466.05 115.799 1459.48 114.716C1464.92 93.6324 1475.38 86.5405 1495.78 83.1684C1497.71 82.9914 1499.65 82.8897 1501.6 82.8667ZM1524.22 142.073C1522.19 141.292 1523.06 141.379 1520.92 141.736C1510.21 142.662 1487.46 142.842 1480 151.761C1474 158.944 1476.82 168.635 1484.94 173.438C1500.04 178.186 1518.22 173.671 1523.85 157.032C1525.22 152.963 1525.84 146.155 1524.22 142.073Z" fill="#FEFEFE"/>
<path d="M996.942 83.1758C1025.65 80.3768 1045.08 95.597 1050.27 124.088C1051.26 129.554 1052.46 136.96 1049.15 141.735C1045.16 144.56 983.494 143.325 975.002 143.315C977.543 165.907 989.892 177.946 1013.6 172.916C1026.18 170.248 1026.94 160.123 1032.35 157.464C1038.07 159.702 1044.29 161.848 1050.09 163.97C1041.68 180.104 1032.8 188.46 1014.25 191.803C961.302 201.34 938.252 142.079 964.252 102.478C971.782 91.009 983.632 85.4358 996.942 83.1758ZM1001.99 100.306C984.592 103.106 979.382 111.218 975.222 127.622L1002.91 127.656C1008.12 127.72 1023.64 128.305 1027.85 127.17C1029.17 125.479 1030.67 123.719 1029.95 121.399C1025.73 107.814 1015.31 100.619 1001.99 100.306Z" fill="#FEFEFE"/>
<path d="M1357.6 39.041L1378.63 39.07L1378.78 130.917L1422.26 84.767L1447.81 85.014L1406.7 127.654C1416.2 140.783 1425.45 154.09 1434.44 167.567C1439.85 174.7 1444.94 182.576 1449.95 190.037C1442.08 190.247 1433.44 190.039 1425.52 190.013L1392.64 141.797L1378.48 156.103L1378.49 189.988L1357.6 190.1V39.041Z" fill="#FEFEFE"/>
<path d="M149.645 217.184C151.818 217.155 154.184 217.097 156.337 217.121C171.377 217.285 171.822 216.458 171.792 231.352C171.759 248.271 171.796 265.245 171.778 282.132L171.672 372.387C171.663 382.317 172.851 406.217 170.575 416.675C170.365 417.638 168.474 417.821 167.371 418.085C160.123 418.192 152.875 418.136 145.63 417.919C144.638 409.338 145.055 393.716 145.055 384.51L145.075 325.373L145.04 258.63C145.04 247.916 144.591 230.086 145.612 219.909C147.252 217.57 146.411 218.353 149.645 217.184Z" fill="#FEFEFE"/>
<path d="M202.332 217.544C210.7 217.27 219.074 217.28 227.441 217.575C228.109 224.733 227.778 238.204 227.777 245.785L227.745 297.314C227.712 335.001 228.936 380.846 227.364 417.639C221.86 418.554 207.579 418.073 201.393 417.901C200.269 398.07 200.596 222.182 202.332 217.544Z" fill="#FEFEFE"/>
<path d="M795.093 84.985C801.763 84.674 809.599 84.887 816.364 84.912L816.45 118.418L816.408 190.029L796.812 189.996L795.565 174.768C772.115 203.134 727.615 198.586 725.503 158.242C724.276 134.81 725.338 108.537 725.553 84.899L746.43 84.862C746.925 106.431 744.792 135.223 747.111 155.782C750.327 184.3 795.718 177.461 794.986 142.515C794.623 125.212 794.988 102.402 795.093 84.985Z" fill="#FEFEFE"/>
<path d="M261.506 217.183C269.69 217.141 276.433 217.167 284.653 217.744C284.671 218.155 284.687 218.567 284.701 218.978C285.932 254.956 284.817 297.826 284.821 334.277L284.836 385.32C284.844 391.339 285.97 414.729 282.826 418.104C274.807 418.203 266.787 418.113 258.772 417.834C258.729 416.804 258.696 415.773 258.674 414.742C257.989 373.141 258.61 329.66 258.6 287.928L258.595 244.627C258.596 237.43 258.517 229.784 258.834 222.574C258.973 219.431 259.576 219.2 261.506 217.183Z" fill="#FEFEFE"/>
<path d="M1116.96 83.156C1164.87 78.971 1162.72 118.614 1162.02 152.569C1161.77 164.824 1161.93 177.673 1161.88 189.972L1140.58 190.013C1140.48 173.549 1143.31 126.702 1138.03 114.184C1135.88 109.092 1132.22 104.893 1127.03 102.797C1119.56 99.778 1110.89 102.081 1103.84 105.186C1089.04 115.651 1090.69 131.366 1090.77 147.328C1090.85 161.552 1090.93 175.778 1090.76 190.002L1069.91 189.944C1069.04 156.48 1069.82 118.626 1069.93 84.999C1076.01 84.761 1082.96 84.895 1089.11 84.869C1089.69 89.872 1090.02 94.78 1090.39 99.799C1098.04 89.376 1104.53 85.561 1116.96 83.156Z" fill="#FEFEFE"/>
<path d="M1289.55 83.199C1312.04 80.941 1329.27 87.076 1336.56 110.261C1331.26 111.909 1323.52 113.485 1317.95 114.784C1304.73 82.774 1257.22 110.125 1287.18 123.386C1303.37 130.55 1335.42 129.151 1338.25 154.977C1340.95 179.657 1322.63 190.88 1300.71 192.631C1277.27 193.083 1260.55 187.529 1253.48 162.937C1259.52 161.475 1265.58 160.131 1271.67 158.904C1279.08 173.816 1287.71 176.989 1303.95 174.835C1315.49 174.732 1323.82 157.253 1312.72 151.43C1292.2 140.667 1251.99 145.624 1258.39 109.368C1261.32 92.789 1272.93 86.009 1289.55 83.199Z" fill="#FEFEFE"/>
<path d="M110.672 231.044C114.065 231.713 112.84 231.086 115.359 233.352C116.618 237.348 116.133 279.411 116.131 286.561L115.915 417.948C109.263 418.189 101.806 418.077 95.0859 418.127C94.4819 418.076 92.5979 417.579 91.8959 417.414C90.2239 415.31 90.0419 415.189 90.0029 411.978C89.7799 393.51 89.9109 374.492 89.9149 356.05L89.9399 239.397C97.4979 236.744 103.391 234.245 110.672 231.044Z" fill="#FEFEFE"/>
<path d="M317.674 231.036C323.151 232.765 334.261 237.652 340.842 239.956C342.056 256.583 342.108 411.866 339.754 417.98C331.575 418.225 323.39 418.2 315.212 417.906C314.579 406.337 314.972 391.138 314.961 379.333L314.91 308.666L314.892 260.981C314.891 253.624 313.374 236.291 317.674 231.036Z" fill="#FEFEFE"/>
<path d="M130.456 128.694C139.21 128.039 153.492 128.434 162.612 128.42L223.079 128.348L271.366 128.312C281.961 128.307 294.766 127.844 304.996 129.403C310.193 133.711 302.884 143.698 300.337 148.919C299.23 150.31 298.168 152.104 296.183 152.132C245.191 152.85 193.987 152.332 142.944 152.501C129.299 152.546 129.724 145.925 127.22 134.62C126.693 132.239 129.047 130.31 130.456 128.694Z" fill="#FEFEFE"/>
<path d="M1199.45 55.546L1213.95 55.558V84.934L1242.05 84.875L1242.09 103.475L1213.98 103.467C1214.11 120.667 1213.75 137.989 1213.91 155.21C1214.1 176.194 1226.68 173.944 1242.68 170.412C1242.9 176.215 1242.8 182.814 1242.84 188.685C1239.56 191.081 1230.75 191.573 1226.67 191.667C1217.44 191.961 1207.88 190.941 1201.08 183.972C1191.73 174.382 1192.43 160.726 1192.46 148.305C1192.5 133.411 1192.59 118.431 1192.68 103.5L1174.76 103.394L1174.75 85.044L1190.79 84.621C1195.06 74.097 1192.63 66.894 1195.42 56.679C1195.68 55.725 1198.03 55.736 1199.45 55.546Z" fill="#FEFEFE"/>
<path d="M659.869 55.7961L679.499 55.6321C679.699 65.2651 679.616 75.2681 679.667 84.9331L707.748 84.8601L707.742 103.403L679.551 103.529C679.82 121.789 679.016 140.177 679.876 158.404C680.738 176.68 695.994 172.932 708.64 170.758L708.71 182.451C708.818 184.905 708.967 185.739 708.076 188.119C696.512 198.104 662.852 189.485 660.273 173.702C656.669 151.649 658.191 126.113 658.307 103.47L640.237 103.42L640.191 85.0501C660.809 84.5501 659.323 82.0651 659.787 61.8201C659.832 59.8621 659.844 57.7651 659.869 55.7961Z" fill="#FEFEFE"/>
<path d="M140.56 171.224C157.135 171.218 287.331 170.012 291.721 172.65C295.573 177.762 295.038 190.464 291.225 195.414L193.347 195.55C177.148 195.546 152.826 196.215 137.506 195.003C137.356 192.288 137.226 189.571 137.113 186.853C136.834 179.902 136.058 176.103 140.56 171.224Z" fill="#FEFEFE"/>
<path d="M967.092 304.074C973.442 303.619 976.932 304.209 983.132 305.312C983.312 312.831 983.092 319.018 982.722 326.543C944.752 320.835 938.212 340.573 939.362 373.042C939.822 386.043 939.452 400.757 939.462 413.883L919.022 414.068C917.292 409.41 918.442 319.295 918.452 305.477L938.402 305.408C938.582 311.252 939.182 317.906 939.572 323.805C946.092 311.853 953.952 306.63 967.092 304.074Z" fill="#FEFEFE"/>
<path d="M550.381 0.293056L563.61 0.186062C568.819 5.79606 574.061 11.3751 579.337 16.9221L595.877 0.193066C601.069 0.0500656 608.047 -1.10994 610.141 4.54606C609.764 7.86406 607.3 9.79706 604.927 12.1841C598.747 18.1761 592.726 24.3321 586.87 30.6431L571.6 30.7361C565.07 24.0351 553.277 14.4181 548.766 6.04007C547.745 4.14507 549.336 2.21106 550.381 0.293056Z" fill="#FEFEFE"/>
<path d="M1511.5 38.985C1517.75 38.849 1528.37 37.213 1532.14 42.927C1532.02 47.619 1513.38 64.245 1508.36 69.385C1504.49 72.464 1494.83 71.161 1489.32 70.947C1492.91 63.511 1506.27 46.064 1511.5 38.985Z" fill="#FEFEFE"/>
</svg>
