<svg width="446" height="330" viewBox="0 0 446 330" fill="none" xmlns="http://www.w3.org/2000/svg">
<path d="M323.109 59.3057C323.368 55.73 323.558 52.1143 324.314 48.6062C329.277 25.7246 346.029 7.91293 370.032 6.01887C401.987 3.49723 425.353 32.2958 422.411 62.9467C421 77.6578 415.421 89.4076 404.065 99.0431C400.231 102.27 395.922 104.886 391.291 106.8C390.313 107.205 386.314 108.481 385.934 109.003C385.346 109.208 384.012 109.634 383.517 109.901C382.025 110.072 371.412 110.616 371.224 110.742C370.827 110.652 369.848 110.558 369.398 110.5C369.093 110.434 366.666 110.139 366.367 110.172C364.886 110.339 358.981 108.325 358.17 108.609C357.191 108.539 356.721 108.263 355.845 107.862C354.944 107.183 347.637 103.28 346.796 103.305L345.597 102.43C345.451 102.261 336.803 95.3137 336.967 95.364L335.668 93.9612C335.075 92.354 331.421 88.238 330.164 86.8306C329.96 85.9299 329.905 85.8381 329.233 85.204L329.341 84.9958C329.119 83.7165 325.929 76.3709 325.208 74.9423C325.095 74.3865 324.666 73.2997 324.459 72.7234C324.654 72.1728 323.256 63.4086 323.161 61.751L323.109 59.3057Z" fill="#FABA23"/>
<path d="M335.668 93.9611L336.967 95.3639C330.729 101.848 322.633 108.576 315.97 114.679L282.33 146.064C252.641 173.641 223.328 201.618 194.397 229.989L167.305 256.305C163.242 260.259 158.919 264.245 154.963 268.273C144.751 278.598 134.46 288.846 124.092 299.015L114.737 308.235C113.447 309.529 110.503 313.674 108.729 312.55C107.812 310.817 108.586 310.251 109.88 308.943C114.12 304.656 118.446 300.446 122.758 296.231L146.929 272.572C175.078 244.736 203.491 217.17 232.166 189.876L284.239 141.052L318.333 109.796C324.509 104.179 329.682 99.9554 335.668 93.9611Z" fill="#F9F5F4"/>
<path d="M316.403 60.4988C318.245 60.0516 321.201 59.6305 323.109 59.3055L323.161 61.7508C321.38 61.9829 319.721 62.1981 317.926 62.3339C316.311 63.0221 307.998 64.0199 305.757 64.4415L265.581 71.9925C230.043 78.5843 194.545 85.3862 159.088 92.3979L67.4923 110.982L44.7267 115.593C42.9652 115.966 35.9296 117.698 34.7997 117.777C33.889 117.366 34.1915 117.634 33.6746 116.749C33.655 115.797 33.5362 116.072 33.9492 115.315C36.2106 113.921 66.3911 108.377 71.213 107.391C140.428 93.0342 209.835 79.6184 279.415 67.1475L303.059 62.7806C306.783 62.0928 312.73 60.8179 316.403 60.4988Z" fill="#F9F5F4"/>
<path d="M316.403 60.4988C318.245 60.0516 321.201 59.6305 323.109 59.3055L323.161 61.7508C321.38 61.9829 319.721 62.1981 317.926 62.3339L318.546 61.7623C319.31 61.6086 319.507 61.6195 320.295 61.6618L320.512 61.6748C318.788 60.6311 318.375 60.5564 316.403 60.4988Z" fill="#E9E3C7"/>
<path d="M329.233 85.2039C329.905 85.838 329.96 85.9298 330.164 86.8305C325.704 90.0932 319.654 93.1411 314.779 96.1183L285.35 114.311L210.905 160.391L107.067 225.646L86.7939 238.18C84.5024 239.623 71.8871 248.127 70.2569 247.664C69.7714 246.989 69.683 246.94 69.6135 246.146C69.8815 245.457 70.2986 245 70.9375 244.628C75.7978 241.798 80.6022 238.798 85.3911 235.847L126.307 210.588C167.795 184.296 209.483 158.322 251.368 132.667L300.566 102.466C308.852 97.3431 320.693 89.519 329.233 85.2039Z" fill="#F9F5F4"/>
<path d="M324.459 72.7233C324.666 73.2996 325.095 74.3864 325.208 74.9422C322.54 76.5108 316.295 78.276 313.15 79.602C305.113 82.9904 296.925 86.0386 288.816 89.2271L189.752 128.027L88.5668 168.941C80.4334 172.267 72.2662 175.51 64.0666 178.67C61.9745 179.487 59.6546 180.529 57.5461 181.325C56.9622 181.546 56.5841 181.173 56.2287 180.878C56.0055 180.229 56.0955 178.479 56.7274 178.248C66.0828 174.819 75.6252 171.245 84.8718 167.562C132.852 147.933 180.988 128.69 229.278 109.834L289.795 86.4029L308.489 79.2107C313.815 77.1963 319.384 75.2621 324.459 72.7233Z" fill="url(#paint0_linear_30_2)"/>
<path d="M340.529 108.888C341.833 106.979 344.024 104.095 345.597 102.43L346.796 103.305C345.301 105.745 343.7 108.281 341.816 110.446C341.323 111.245 340.524 112.186 339.942 112.958C332.944 122.241 326.407 131.843 319.568 141.253L278.688 198.44L225.263 274.615L203.681 305.385C200.378 310.128 197.236 315.029 193.922 319.76C192.927 321.181 192.416 321.177 190.793 321.397L190.467 321.109C190.579 318.981 196.539 311.387 198.127 309.082L214.922 284.949L261.435 218.865C274.026 200.704 286.751 182.637 299.611 164.666C305.541 156.437 311.678 148.439 317.663 140.272L332.107 120.27C334.768 116.582 337.662 112.383 340.529 108.888Z" fill="#F9F5F4"/>
<path d="M340.529 108.888C341.833 106.979 344.024 104.095 345.597 102.43L346.796 103.305C345.301 105.745 343.7 108.281 341.816 110.446C342.005 109.075 342.778 107.839 343.812 106.916L343.383 106.733C341.853 107.087 342.38 108.203 340.529 108.888Z" fill="#E9E3C7"/>
<path d="M355.845 107.862C356.721 108.263 357.191 108.539 358.17 108.609C356.292 113.625 353.263 120.021 351.052 125.094L337.579 155.785L306.022 227.063C300.714 239.168 295.321 251.236 289.843 263.265C282.791 278.614 275.435 293.813 268.731 309.333C267.055 313.212 265.601 317.463 263.495 321.097C262.48 321.384 261.957 321.691 261.316 320.776C261.19 317.798 285.864 265.61 289.026 258.599L330.215 166.443L344.327 134.549C348.149 125.987 352.565 116.568 355.845 107.862Z" fill="url(#paint1_linear_30_2)"/>
<path d="M385.934 109.003C385.943 109.531 385.988 110.419 385.96 110.913C386.262 124.722 385.719 138.843 386.078 152.681C386.245 159.12 386.61 165.538 386.743 171.989C387.026 192.242 387.206 212.496 387.281 232.75C387.306 242.691 387.586 254.072 387.276 263.938L387.339 300.345C387.344 302.844 387.708 319.557 386.956 320.789C386.215 321.332 386.554 321.242 385.698 321.215C384.299 320.411 384.391 318.954 384.422 317.506C384.576 310.212 384.427 302.906 384.476 295.61C384.484 294.403 384.454 293.003 384.542 291.812C384.254 284.968 384.652 275.79 384.726 268.766C384.835 254.858 384.822 240.948 384.686 227.04C384.297 203.71 383.223 180.416 383.617 157.072C383.648 155.234 383.579 153.405 383.734 151.571C383.171 138.904 383.51 122.737 383.517 109.901C384.012 109.634 385.346 109.208 385.934 109.003Z" fill="url(#paint2_linear_30_2)"/>
<path d="M384.542 291.812C385.413 290.476 384.704 284.123 385.267 282.039L385.51 282.156C385.837 284.001 385.798 287.911 385.83 289.941C385.846 290.059 386.37 285.505 386.397 285.212C387.056 278.137 386.149 270.87 386.912 263.821L387.276 263.938L387.339 300.345C387.344 302.844 387.708 319.557 386.956 320.789C386.215 321.332 386.554 321.242 385.698 321.215C384.299 320.411 384.391 318.954 384.422 317.506C384.576 310.212 384.427 302.906 384.476 295.61C384.484 294.403 384.454 293.003 384.542 291.812Z" fill="#F9F5F4"/>
<path d="M385.934 109.003C385.943 109.531 385.988 110.419 385.96 110.913C385.63 113.096 385.721 118.747 385.717 121.142L385.709 141.559C385.714 144.655 385.879 149.938 385.603 152.795C385.245 151.306 385.459 141.415 385.412 139.273C385.357 136.751 384.793 132.736 384.362 130.239C384.169 133.572 384.056 136.909 384.023 140.247C384.006 142.276 384.219 150.102 383.734 151.571C383.171 138.904 383.51 122.737 383.517 109.901C384.012 109.634 385.346 109.208 385.934 109.003Z" fill="#F9F5F4"/>
<path d="M369.398 110.5C369.848 110.558 370.827 110.652 371.224 110.742C369.23 124.939 365.536 140.182 362.849 154.394C354.343 198.773 345.129 243.014 335.211 287.099L330.786 307.873C329.895 312.171 329.306 316.616 327.904 320.769C327.622 321.606 325.919 321.043 325.383 320.653C325.311 319.521 327.255 311.216 327.629 309.495L333.355 283.085L351.033 200.904L360.77 152.619C363.404 138.889 366.063 123.995 369.398 110.5Z" fill="url(#paint3_linear_30_2)"/>
<defs>
<linearGradient id="paint0_linear_30_2" x1="193.885" y1="135.913" x2="185.61" y2="118.294" gradientUnits="userSpaceOnUse">
<stop stop-color="#EAD7E6"/>
<stop offset="1" stop-color="#FDFFF7"/>
</linearGradient>
<linearGradient id="paint1_linear_30_2" x1="312.35" y1="216.392" x2="306.337" y2="213.55" gradientUnits="userSpaceOnUse">
<stop stop-color="#FFF7FE"/>
<stop offset="1" stop-color="#EFEFE6"/>
</linearGradient>
<linearGradient id="paint2_linear_30_2" x1="398.399" y1="208.193" x2="371.69" y2="213.041" gradientUnits="userSpaceOnUse">
<stop stop-color="#D2B9C4"/>
<stop offset="1" stop-color="#E6F0F0"/>
</linearGradient>
<linearGradient id="paint3_linear_30_2" x1="343.447" y1="214.821" x2="353.448" y2="217.342" gradientUnits="userSpaceOnUse">
<stop stop-color="#F0F5EE"/>
<stop offset="1" stop-color="#FFF8FA"/>
</linearGradient>
</defs>
</svg>
